<?xml version="1.0" ?><svg data-name="Layer 1" id="Layer_1" viewBox="0 0 80 80" xmlns="http://www.w3.org/2000/svg"><defs><style>.cls-1{fill:#48ef48;}.cls-2{fill:#2dd32d;}.cls-3{fill:#1f8fff;}.cls-4{fill:#0083cc;}.cls-5{fill:#ffda00;}.cls-6,.cls-7,.cls-8{fill:none;stroke:#000;stroke-width:4px;}.cls-6,.cls-7{stroke-linecap:round;}.cls-6,.cls-8{stroke-miterlimit:10;}.cls-7{stroke-linejoin:round;}.cls-9{fill:#777;}</style></defs><title/><path class="cls-1" d="M10,9V67a8,8,0,0,0,8,8H62a8,8,0,0,0,8-8V9a4,4,0,0,0-4-4H14A4,4,0,0,0,10,9Z"/><path class="cls-2" d="M62,5H56a8,8,0,0,1,8,8V67a8,8,0,0,1-8,8h6a8,8,0,0,0,8-8V13A8,8,0,0,0,62,5Z"/><rect class="cls-3" height="26" width="30" x="40" y="5"/><path class="cls-4" d="M64,11.0041V31h6V9a3.9989,3.9989,0,0,0-4-4l-7.99.0048A6,6,0,0,1,64,11.0041Z"/><rect class="cls-5" height="26" width="30" x="10" y="5"/><path class="cls-6" d="M52.6029,57.375l3.1483,5.4531a1.4483,1.4483,0,0,1-1.2543,2.1724L38.0034,65"/><polyline class="cls-7" points="42.003 61 38.003 65 42.003 69"/><path class="cls-6" d="M35.6077,43.1658l3.1484-5.4531a1.4483,1.4483,0,0,1,2.5085,0l8.2463,14.284"/><polyline class="cls-7" points="44.047 50.533 49.511 51.997 50.975 46.533"/><path class="cls-6" d="M31.8,64.9886H25.5031a1.4484,1.4484,0,0,1-1.2543-2.1725L32.496,48.5327"/><polyline class="cls-7" points="33.96 53.997 32.496 48.533 27.032 49.997"/><path class="cls-6" d="M10,9V67a8,8,0,0,0,8,8H62a8,8,0,0,0,8-8V9a4,4,0,0,0-4-4H14A4,4,0,0,0,10,9Z"/><line class="cls-8" x1="10" x2="70" y1="31" y2="31"/><line class="cls-8" x1="40" x2="40" y1="5" y2="31"/><circle class="cls-9" cx="25" cy="18" r="7"/><circle class="cls-6" cx="25" cy="18" r="7"/><polyline class="cls-7" points="18.938 21.5 25 18 25 11"/><line class="cls-6" x1="25" x2="31.0622" y1="18" y2="21.5"/><circle class="cls-9" cx="55" cy="18" r="7"/><circle class="cls-6" cx="55" cy="18" r="7"/><polyline class="cls-7" points="48.938 21.5 55 18 55 11"/><line class="cls-6" x1="55" x2="61.0622" y1="18" y2="21.5"/></svg>