<?xml version="1.0" ?><svg data-name="Layer 1" id="Layer_1" viewBox="0 0 80 80" xmlns="http://www.w3.org/2000/svg"><defs><style>.cls-1{fill:#efd5ab;}.cls-2{fill:#cead89;}.cls-3,.cls-4{fill:none;stroke:#000;stroke-linecap:round;stroke-width:4px;}.cls-3{stroke-linejoin:round;}.cls-4{stroke-miterlimit:10;}</style></defs><title/><path class="cls-1" d="M63,21a4,4,0,0,0-4-4H21a4,4,0,0,0-4,4V66.5791a3.9938,3.9938,0,0,1-.0876.8323l-.8214,3.861A3,3,0,0,0,19.0015,75h41.997a3,3,0,0,0,2.91-3.7276l-.8214-3.861A3.9938,3.9938,0,0,1,63,66.5791Z"/><path class="cls-2" d="M63.9089,71.2724l-.8213-3.861A4.0006,4.0006,0,0,1,63,66.5791V21a4,4,0,0,0-4-4H53a4,4,0,0,1,4,4V66.5791a4.0006,4.0006,0,0,0,.0876.8323l.8213,3.861A3,3,0,0,1,54.9985,75h6A3,3,0,0,0,63.9089,71.2724Z"/><line class="cls-3" x1="17" x2="57" y1="67" y2="67"/><path class="cls-3" d="M32,23V13a8,8,0,0,1,8-8h0a8,8,0,0,1,8,8V23"/><path class="cls-3" d="M42,17H21a4,4,0,0,0-4,4V67l-1.0681,4.2725A3,3,0,0,0,18.8423,75H61.1577a3,3,0,0,0,2.91-3.7276L63,67V21a4,4,0,0,0-4-4H48.1"/><path class="cls-4" d="M52.6029,49.375l3.1483,5.4531a1.4483,1.4483,0,0,1-1.2543,2.1724L38.0034,57"/><polyline class="cls-3" points="42.003 53 38.003 57 42.003 61"/><path class="cls-4" d="M35.6077,35.1658l3.1484-5.4531a1.4483,1.4483,0,0,1,2.5085,0l8.2463,14.284"/><polyline class="cls-3" points="44.047 42.533 49.511 43.997 50.975 38.533"/><path class="cls-4" d="M31.8,56.9886H25.5031a1.4484,1.4484,0,0,1-1.2543-2.1725L32.496,40.5327"/><polyline class="cls-3" points="33.96 45.997 32.496 40.533 27.032 41.997"/></svg>