<?xml version="1.0" ?><!DOCTYPE svg  PUBLIC '-//W3C//DTD SVG 1.1//EN'  'http://www.w3.org/Graphics/SVG/1.1/DTD/svg11.dtd'><svg height="512px" id="Layer_1" style="enable-background:new 0 0 512 512;" version="1.1" viewBox="0 0 512 512" width="512px" xml:space="preserve" xmlns="http://www.w3.org/2000/svg" xmlns:xlink="http://www.w3.org/1999/xlink"><g id="Layer_1_1_"><circle cx="256.42" cy="251.99" r="243" style="fill:#125E6E;"/></g><g id="Layer_2"><g id="Favorite"/><g><polygon points="256,71.599 256,500.659 66.7,500.659     66.7,71.599 96.83,94.399 108.23,77.049 132.02,100.349 154.33,71.599 181.59,93.909 201.71,73.589 226.69,95.389   " style="fill:#FFFFFF;stroke:#CCCCCC;stroke-width:3;stroke-miterlimit:10;"/><g style="opacity:0.7;adobe-blending-mode:multiply;"><rect height="10.218" style="fill:#8299CE;adobe-blending-mode:normal;" width="153.266" x="85.221" y="133.619"/></g><g style="opacity:0.7;adobe-blending-mode:multiply;"><rect height="10.218" style="fill:#8299CE;adobe-blending-mode:normal;" width="83.03" x="84.719" y="394.809"/></g><g style="opacity:0.7;adobe-blending-mode:multiply;"><rect height="10.218" style="fill:#8299CE;adobe-blending-mode:normal;" width="83.03" x="84.719" y="418.483"/></g><g style="opacity:0.7;adobe-blending-mode:multiply;"><rect height="10.218" style="fill:#8299CE;adobe-blending-mode:normal;" width="83.03" x="84.719" y="444.366"/></g><g style="opacity:0.7;adobe-blending-mode:multiply;"><g style="adobe-blending-mode:normal;"><rect height="10.218" style="fill:#8299CE;" width="153.266" x="85.221" y="354.299"/></g><g style="adobe-blending-mode:normal;"><rect height="10.218" style="fill:#8299CE;" width="153.266" x="85.221" y="332.299"/></g><g style="adobe-blending-mode:normal;"><rect height="10.218" style="fill:#8299CE;" width="153.266" x="85.221" y="310.299"/></g><g style="adobe-blending-mode:normal;"><rect height="10.218" style="fill:#8299CE;" width="153.266" x="85.221" y="288.299"/></g><g style="adobe-blending-mode:normal;"><rect height="10.218" style="fill:#8299CE;" width="153.266" x="85.221" y="266.299"/></g><g style="adobe-blending-mode:normal;"><rect height="10.218" style="fill:#8299CE;" width="153.266" x="85.221" y="244.299"/></g><g style="adobe-blending-mode:normal;"><rect height="10.218" style="fill:#8299CE;" width="153.266" x="85.221" y="222.299"/></g><g style="adobe-blending-mode:normal;"><rect height="10.218" style="fill:#8299CE;" width="153.266" x="85.221" y="200.299"/></g><g style="adobe-blending-mode:normal;"><rect height="10.218" style="fill:#8299CE;" width="153.266" x="85.221" y="178.299"/></g><g style="adobe-blending-mode:normal;"><rect height="10.218" style="fill:#8299CE;" width="153.266" x="85.221" y="156.299"/></g></g><g><path d="M256,180.389v201.73     l-80.18,10.82c-11.07,1.5-21.44-7.16-23.06-19.22l-11.41-84.65l-3.2-23.67l-2.46-18.19l-3.74-27.76     c-1.63-12.05,6.1-23.16,17.16-24.64l27.81-3.75L256,180.389z" style="opacity:0.2;fill:#231F20;adobe-blending-mode:multiply;enable-background:new    ;"/></g><g><path d="M470.222,327.189c1.564,11.635-6.206,22.366-17.265,23.863l-186.137,25.09l-82.493,11.129     c-11.069,1.498-21.397-6.8-22.959-18.425l-10.993-81.553l-3.085-22.802l-2.365-17.521l-3.606-26.748     c-1.571-11.614,6.207-22.356,17.268-23.843l27.809-3.748l111.271-15.018l10.505-1.412l119.033-16.051     c11.07-1.488,21.407,6.799,22.969,18.424l17.353,128.645L470.222,327.189z" style="fill:#BA334D;"/><path d="M470.222,327.189     c1.564,11.635-6.206,22.366-17.265,23.863l-186.137,25.09l-82.493,11.129c-11.069,1.498-21.397-6.8-22.959-18.425l-10.993-81.553     l-3.085-22.802l-2.365-17.521l-3.606-26.748c-1.571-11.614,6.207-22.356,17.268-23.843l27.809-3.748l111.271-15.018l10.505-1.412     l119.033-16.051c11.07-1.488,21.407,6.799,22.969,18.424l17.353,128.645L470.222,327.189z" style="fill:#D51920;adobe-blending-mode:multiply;enable-background:new    ;"/></g><path d="M472.654,324.001c1.564,11.635-6.206,22.366-17.265,23.863l-186.137,25.091l-82.493,11.129    c-11.069,1.498-21.397-6.8-22.959-18.425l-10.993-81.553l-3.085-22.802l-2.365-17.521l-3.606-26.748    c-1.571-11.614,6.207-22.356,17.268-23.843l27.809-3.748l111.271-15.018l10.505-1.412l119.033-16.051    c11.07-1.488,21.407,6.799,22.969,18.424l17.353,128.645L472.654,324.001z" style="fill:#BA334D;"/><path d="M244.449,342.31c0.429,3.194-2.224,6.186-5.927,6.684l-49.158,6.608    c-3.703,0.498-7.052-1.688-7.481-4.882l-0.65-4.839c-0.429-3.194,2.224-6.186,5.927-6.684l49.158-6.608    c3.703-0.498,7.052,1.688,7.481,4.882L244.449,342.31z" style="fill:#E3E3E3;"/><path d="M314.47,332.898c0.429,3.194-2.224,6.186-5.927,6.684l-49.158,6.608    c-3.703,0.498-7.052-1.688-7.481-4.882l-0.65-4.839c-0.429-3.194,2.224-6.186,5.927-6.684l49.158-6.608    c3.703-0.498,7.052,1.688,7.481,4.882L314.47,332.898z" style="fill:#E3E3E3;"/><path d="M385.355,323.37c0.429,3.194-2.224,6.186-5.927,6.684l-49.158,6.608    c-3.703,0.498-7.052-1.688-7.481-4.882l-0.65-4.839c-0.429-3.194,2.224-6.186,5.927-6.684l49.158-6.608    c3.703-0.498,7.052,1.688,7.481,4.882L385.355,323.37z" style="fill:#E3E3E3;"/><path d="M455.808,313.9c0.429,3.194-2.224,6.186-5.927,6.684l-49.158,6.608    c-3.703,0.498-7.052-1.688-7.481-4.881l-0.65-4.839c-0.429-3.194,2.224-6.186,5.927-6.684l49.158-6.608    c3.703-0.498,7.052,1.688,7.481,4.881L455.808,313.9z" style="fill:#E3E3E3;"/><path d="M322.341,261.791    c0.381,2.831-2.661,5.577-6.794,6.133l-126.398,16.99c-4.133,0.556-7.792-1.289-8.173-4.121l-5.33-39.655    c-0.381-2.831,2.661-5.577,6.794-6.132l126.398-16.99c4.133-0.556,7.792,1.289,8.173,4.121L322.341,261.791z" id="XMLID_1_" style="fill:#F79497;adobe-blending-mode:screen;enable-background:new    ;"/><g><g><path d="M359.72,253.047c1.51,11.197,11.811,19.049,23.007,17.539l27.925-3.766      c11.197-1.51,19.049-11.811,17.539-23.007l-3.766-27.925c-1.51-11.197-11.811-19.049-23.007-17.539l-27.925,3.766      c-11.197,1.51-19.049,11.811-17.539,23.007L359.72,253.047z" id="SVGID_17_" style="fill:#F5BA3D;"/></g><g><defs><path d="M359.72,253.047c1.51,11.197,11.811,19.049,23.007,17.539l27.925-3.766       c11.197-1.51,19.049-11.811,17.539-23.007l-3.766-27.925c-1.51-11.197-11.811-19.049-23.007-17.539l-27.925,3.766       c-11.197,1.51-19.049,11.811-17.539,23.007L359.72,253.047z" id="SVGID_1_"/></defs><clipPath id="SVGID_2_"><use style="overflow:visible;" xlink:href="#SVGID_1_"/></clipPath><path d="M359.72,253.047c1.51,11.197,11.811,19.049,23.007,17.539l27.925-3.766      c11.197-1.51,19.049-11.811,17.539-23.007l-3.766-27.925c-1.51-11.197-11.811-19.049-23.007-17.539l-27.925,3.766      c-11.197,1.51-19.049,11.811-17.539,23.007L359.72,253.047z" style="clip-path:url(#SVGID_2_);fill:#F5BA3D;"/></g><g><defs><path d="M359.72,253.047c1.51,11.197,11.811,19.049,23.007,17.539l27.925-3.766       c11.197-1.51,19.049-11.811,17.539-23.007l-3.766-27.925c-1.51-11.197-11.811-19.049-23.007-17.539l-27.925,3.766       c-11.197,1.51-19.049,11.811-17.539,23.007L359.72,253.047z" id="SVGID_3_"/></defs><clipPath id="SVGID_4_"><use style="overflow:visible;" xlink:href="#SVGID_3_"/></clipPath><circle cx="359.306" cy="238.872" r="41.741" style="clip-path:url(#SVGID_4_);fill:#F5BA3D;"/></g><g><defs><path d="M359.72,253.047c1.51,11.197,11.811,19.049,23.007,17.539l27.925-3.766       c11.197-1.51,19.049-11.811,17.539-23.007l-3.766-27.925c-1.51-11.197-11.811-19.049-23.007-17.539l-27.925,3.766       c-11.197,1.51-19.049,11.811-17.539,23.007L359.72,253.047z" id="SVGID_5_"/></defs><clipPath id="SVGID_6_"><use style="overflow:visible;" xlink:href="#SVGID_5_"/></clipPath><circle cx="425.686" cy="230.807" r="41.741" style="clip-path:url(#SVGID_6_);fill:#F5BA3D;"/></g><g><defs><path d="M359.72,253.047c1.51,11.197,11.811,19.049,23.007,17.539l27.925-3.766       c11.197-1.51,19.049-11.811,17.539-23.007l-3.766-27.925c-1.51-11.197-11.811-19.049-23.007-17.539l-27.925,3.766       c-11.197,1.51-19.049,11.811-17.539,23.007L359.72,253.047z" id="SVGID_7_"/></defs><clipPath id="SVGID_8_"><use style="overflow:visible;" xlink:href="#SVGID_7_"/></clipPath><circle cx="388.464" cy="201.65" r="41.741" style="clip-path:url(#SVGID_8_);fill:#F5BA3D;"/></g><g><defs><path d="M359.72,253.047c1.51,11.197,11.811,19.049,23.007,17.539l27.925-3.766       c11.197-1.51,19.049-11.811,17.539-23.007l-3.766-27.925c-1.51-11.197-11.811-19.049-23.007-17.539l-27.925,3.766       c-11.197,1.51-19.049,11.811-17.539,23.007L359.72,253.047z" id="SVGID_9_"/></defs><clipPath id="SVGID_10_"><use style="overflow:visible;" xlink:href="#SVGID_9_"/></clipPath><circle cx="396.528" cy="268.03" r="41.741" style="clip-path:url(#SVGID_10_);fill:#F5BA3D;"/></g></g><g style="opacity:0.7;"><path d="M215.583,386.5l-0.19,9.231c6.505,0.426,12.786,2.304,16.434,4.518l-3.149,11.31     c-4.035-2.32-9.727-4.478-16.043-4.608c-5.539-0.114-9.373,1.947-9.453,5.833c-0.076,3.692,2.986,6.089,10.127,8.666     c10.326,3.712,17.319,8.716,17.126,18.143c-0.176,8.552-6.338,15.133-16.777,16.96l-0.19,9.232l-9.523-0.196l0.176-8.552     c-6.505-0.425-10.85-1.875-14.025-3.497l3.045-10.922c2.504,1.12,6.929,3.447,13.925,3.591c6.316,0.13,8.413-2.549,8.469-5.269     c0.066-3.207-3.293-5.318-11.489-8.598c-11.48-4.318-16.034-9.759-15.854-18.505c0.178-8.648,6.451-15.908,17.667-17.622     l0.204-9.911L215.583,386.5z" style="fill:#8DC63F;"/></g></g></g></svg>